<?xml version="1.0" encoding="UTF-8"?><svg id="Layer_1" xmlns="http://www.w3.org/2000/svg" viewBox="0 0 475.37 475.37"><defs><style>.cls-1{fill:#5a72b7;}</style></defs><g id="Layer_1-2"><path class="cls-1" d="m237.69,0C106.41,0,0,106.43,0,237.69s106.41,237.67,237.69,237.67,237.67-106.41,237.67-237.67S368.96,0,237.69,0Zm105.36,183.65c.1,2.32.16,4.67.16,7.03,0,71.85-54.69,154.69-154.69,154.69-30.7,0-59.27-9.01-83.34-24.42,4.26.48,8.58.75,12.99.75,25.47,0,48.91-8.68,67.53-23.26-23.81-.44-43.88-16.16-50.79-37.76,3.31.65,6.72.97,10.22.97,4.97,0,9.77-.67,14.32-1.9-24.86-5.01-43.6-26.96-43.6-53.31v-.69c7.33,4.08,15.71,6.52,24.64,6.81-14.6-9.75-24.19-26.39-24.19-45.26,0-9.96,2.69-19.31,7.35-27.32,26.82,32.88,66.89,54.53,112.08,56.81-.95-3.98-1.41-8.14-1.41-12.4,0-30.03,24.33-54.36,54.36-54.36,15.63,0,29.77,6.6,39.68,17.17,12.38-2.44,24.01-6.97,34.51-13.19-4.06,12.68-12.66,23.35-23.89,30.07,10.99-1.31,21.45-4.24,31.2-8.54-7.31,10.91-16.5,20.46-27.12,28.13Z"/></g></svg>