<?xml version="1.0" encoding="UTF-8"?>
<svg id="Layer_2" data-name="Layer 2" xmlns="http://www.w3.org/2000/svg" viewBox="0 0 218.72 307.63">
  <g id="Layer_1-2" data-name="Layer 1">
    <g>
      <path d="m114.87,237.02l92.9-104.26c4.24-4.76.86-12.29-5.51-12.29h-50.23s0-113.09,0-113.09c0-4.08-3.3-7.38-7.38-7.38h-70.57c-4.08,0-7.38,3.3-7.38,7.38v113.09H16.46c-6.37,0-9.75,7.53-5.51,12.29l92.9,104.26c2.93,3.29,8.08,3.29,11.02,0Z"/>
      <path d="m7.38,307.63h203.96c4.08,0,7.38-3.3,7.38-7.38v-25c0-4.34-3.3-7.86-7.38-7.86H7.38c-4.08,0-7.38,3.52-7.38,7.86v25c0,4.08,3.3,7.38,7.38,7.38Z"/>
    </g>
  </g>
</svg>