<?xml version="1.0" encoding="UTF-8"?>
<svg id="Layer_2" data-name="Layer 2" xmlns="http://www.w3.org/2000/svg" viewBox="0 0 235.39 235.39">
  <defs>
    <style>
      .cls-1 {
        fill: #1a1a1a;
      }
    </style>
  </defs>
  <g id="Layer_1-2" data-name="Layer 1">
    <path class="cls-1" d="m140.37,117.7c0,12.58-10.09,22.66-22.67,22.66s-22.66-10.08-22.66-22.66,10.08-22.66,22.66-22.66,22.67,10.08,22.67,22.66Z"/>
    <path class="cls-1" d="m145.58,63h-55.77c-15.04,0-26.97,11.94-26.97,26.98v55.44c0,15.05,11.93,26.98,26.97,26.98h55.77c15.05,0,26.99-11.93,26.99-26.98v-55.44c0-15.04-11.94-26.98-26.99-26.98Zm-27.88,88.72c-18.72,0-34.02-15.3-34.02-34.02s15.3-34.02,34.02-34.02,34.02,15.3,34.02,34.02-15.3,34.02-34.02,34.02Zm35.54-61.48c-4.39,0-7.94-3.55-7.94-7.94s3.55-7.94,7.94-7.94,7.94,3.55,7.94,7.94-3.55,7.94-7.94,7.94Z"/>
    <path class="cls-1" d="m117.7,0C52.7,0,0,52.7,0,117.7s52.7,117.69,117.7,117.69,117.69-52.69,117.69-117.69S182.7,0,117.7,0Zm66.22,145.42c0,21.15-17.19,38.34-38.34,38.34h-55.77c-21.14,0-38.33-17.19-38.33-38.34v-55.44c0-21.14,17.19-38.34,38.33-38.34h55.77c21.15,0,38.34,17.2,38.34,38.34v55.44Z"/>
  </g>
</svg>