<?xml version="1.0" encoding="UTF-8"?>
<svg id="Layer_2" data-name="Layer 2" xmlns="http://www.w3.org/2000/svg" viewBox="0 0 306.94 267.68">
  <g id="Layer_1-2" data-name="Layer 1">
    <path d="m75.48,267.68c-47.56,0-68.95-39.37-68.95-67.32,0-6.08,4.92-11,11-11s11,4.92,11,11c0,17.52,12.75,45.32,46.95,45.32,19.69,0,26.28-7.12,29.83-13.33,6.49-11.36,7.32-30.48,7.32-45.86,0-24.18,11.34-36.75,21.35-47.85,10.57-11.72,20.55-22.79,20.55-50.37,0-36.54-29.73-66.27-66.27-66.27S22,51.73,22,88.27c0,6.08-4.92,11-11,11S0,94.34,0,88.27C0,39.6,39.6,0,88.27,0s88.27,39.6,88.27,88.27c0,36.04-14.54,52.15-26.21,65.1-9.11,10.1-15.68,17.39-15.68,33.11,0,19.23-1.21,41.01-10.22,56.78-9.39,16.43-25.39,24.42-48.93,24.42Z"/>
    <path d="m128.59,99.5c-6.08,0-11-4.92-11-11,0-16.19-13.17-29.36-29.36-29.36s-29.36,13.17-29.36,29.36c0,6.08-4.92,11-11,11s-11-4.92-11-11c0-28.32,23.04-51.36,51.36-51.36s51.36,23.04,51.36,51.36c0,6.08-4.92,11-11,11Z"/>
    <path d="m55.9,210c-2.45,0-4.88-.31-7.29-.93-5.88-1.52-9.42-7.52-7.89-13.4,1.52-5.88,7.52-9.42,13.4-7.89,7.58,1.96,22.71-11.09,29.18-36,3.05-11.76,3.38-23.77.9-32.98-1.87-6.95-5.19-11.67-8.89-12.63-5.88-1.52-9.42-7.52-7.89-13.4,1.52-5.88,7.52-9.42,13.4-7.89,11.81,3.05,20.55,13.07,24.63,28.21,3.49,12.96,3.18,28.66-.85,44.22-4.04,15.56-11.41,29.43-20.75,39.06-8.69,8.96-18.39,13.64-27.94,13.64Z"/>
    <path d="m251.08,253.33c-2.81,0-5.63-1.07-7.78-3.22-4.3-4.3-4.3-11.26,0-15.56,55.53-55.55,55.53-145.91,0-201.44-4.3-4.3-4.3-11.26,0-15.56,4.3-4.3,11.26-4.3,15.56,0,64.11,64.1,64.11,168.42,0,232.55-2.15,2.15-4.96,3.22-7.78,3.22Z"/>
    <path d="m201.82,177.28c-2.81,0-5.63-1.07-7.78-3.22-4.3-4.3-4.3-11.26,0-15.56,13.59-13.59,13.59-35.71,0-49.3-4.3-4.3-4.3-11.26,0-15.56,4.29-4.3,11.26-4.3,15.56,0,22.17,22.17,22.17,58.24,0,80.41-2.15,2.15-4.96,3.22-7.78,3.22Z"/>
    <path d="m227.29,213.57c-2.81,0-5.63-1.07-7.78-3.22-4.3-4.3-4.3-11.26,0-15.56,33.61-33.62,33.61-88.3,0-121.9-4.3-4.3-4.3-11.26,0-15.56,4.3-4.3,11.26-4.3,15.56,0,42.18,42.18,42.18,110.82,0,153.02-2.15,2.15-4.96,3.22-7.78,3.22Z"/>
  </g>
</svg>