<?xml version="1.0" encoding="UTF-8"?>
<svg id="Layer_2" data-name="Layer 2" xmlns="http://www.w3.org/2000/svg" viewBox="0 0 1340.68 596.21">
  <g id="Layer_1-2" data-name="Layer 1">
    <g>
      <path d="m107.1,246.58c-152.75,18.72-144.91,334.84,41.57,317.12,49.49-4.7,64.49-35.29,64.49-35.29l2.93,28.92,62.43-4.52-19.21-141.03-116.88,12.78,9.17,49.04,49.88-8.32s-17.65,24.61-56.65,28.96c-96.22,10.72-107.59-164.28-16.28-176.74,50.83-6.94,54.11,43.84,54.11,43.84l69.88-11.37s-13.39-119.58-145.43-103.39Z"/>
      <g>
        <path d="m504.66,307.43c.92,20.39-16.37,40.45-37.28,42.19-20.91,1.73-40.08-13.34-41-33.73-.92-20.39,16.01-40.78,36.96-42.04,20.95-1.26,40.41,13.19,41.32,33.58Z"/>
        <path d="m323.4,277.85c20.39-.92,40.45,16.37,42.19,37.28,1.73,20.91-13.34,40.08-33.73,41-20.39.92-40.78-16.01-42.04-36.96-1.26-20.95,13.19-40.41,33.58-41.32Z"/>
        <path d="m403.75,510.83c-46.48,0-86.91-33.68-106.56-89.4-4.92-13.95,2.4-29.25,16.36-34.17,13.96-4.92,29.25,2.4,34.17,16.36,12.21,34.63,34.78,55.14,58.94,53.54,25.15-1.68,46.39-26.64,54.1-63.6,3.02-14.48,17.22-23.77,31.7-20.75,14.48,3.02,23.77,17.21,20.75,31.7-12.76,61.14-53.18,102.79-102.98,106.12-2.17.15-4.33.22-6.48.22Z"/>
      </g>
      <g>
        <path d="m858.57,244.9c-.04-8.02-8.1-14.96-17.97-15.46l-32.35-1.69c-9.96-.53-17.97,5.7-17.76,13.82l1.08,41.57,67.25,2.51-.25-40.75Z"/>
        <polygon points="859.09 295.44 792.14 292.74 792.42 305.6 859.13 306.53 859.09 295.44"/>
        <polygon points="829.76 535.61 856.98 492.75 797.07 492.37 829.76 535.61"/>
        <polygon points="859.18 318.61 792.7 317.08 796.5 482.83 859.88 484.22 859.18 318.61"/>
      </g>
      <g>
        <path d="m1169.55,423.82l50.58,2.37,6.07,29.97c21.61-14.62,43.75-26.08,61.36-34.24l-54.07-176.59-66.64-2.66-65.65,176.88c17.05,5.81,38.31,14.26,61.26,26.18l7.09-21.91Zm28.51-118.64l18.64,73.37-41.73-3.1,23.09-70.27Z"/>
        <path d="m1295.27,447.09c-9.68,4.82-20.57,10.59-32.33,17.33,1.34-.95,15.13-10.56,31.43-20.27,10.31-6.15,21.65-12.34,31.46-16.39l1.58-9.23s-15.08,5.2-36.25,15.15c-18.15,8.52-40.8,20.48-62.3,35.61-7.75,5.42-15.34,11.27-22.53,17.5-16.07-11.56-32.24-21.26-47.66-29.37-23.12-12.17-44.59-20.72-61.66-26.58-23.39-7.98-38.54-10.88-38.54-10.88l2.76,14.02s13.22,3.16,31.34,8.84c16.7,5.27,37.61,12.73,56.04,21.88-1.1-.42-25.58-9.83-57.05-19.18-15.22-4.5-32.11-8.99-48.78-12.42l9.15,110.67,135.25,52.44,134.23-40.49,19.27-128.65s-17.8,6.24-45.41,20.01Z"/>
      </g>
      <polygon points="1098.38 238.88 884.53 234.46 885.45 302.76 958.64 303.65 957.67 517.93 1027.38 519.21 1025.54 304.12 1100.48 304.73 1098.38 238.88"/>
      <polygon points="551.34 238.88 547.02 520.33 617.37 521.79 613.36 386.35 688.95 517.44 754.58 518.8 754.58 243.09 684.29 243.82 687.98 400.65 610.72 240.11 551.34 238.88"/>
      <g>
        <path d="m236.67,55.93C229.71-26.4,106.07,7.84,106.07,7.84l11.44,204.13,44.45.21-4.48-66.52s86.54-2.98,79.19-89.74Zm-83.14,52.5l-4.48-66.74s42.59-13.13,45.89,24.23c3.26,37.01-41.41,42.51-41.41,42.51Z"/>
        <path d="m362.12,134.41s42.37-30.41,25.33-89.57C369.08-18.82,249.98,10.1,249.98,10.1l10.87,199.32h44.63l-2.5-57.86,16.69-1.38,27.4,59.25h54.59l-39.55-75.01Zm-62.89-21.9l-3.16-65.2s50.37-9.86,52.18,26.63c1.75,36.1-49.01,38.57-49.01,38.57Z"/>
        <path d="m609.98,1.56l.73,52.48,67.1,2.39-1.96,65.38c.36,53.06-63.59,42.02-63.59,42.02l-2.22,45.97s110.05,17.16,113.82-60.89l3.08-138.56-116.96-8.79Z"/>
        <polygon points="748.18 6.85 751.36 206.12 879.98 206.12 880.01 153.29 797.11 152.46 796.94 131.57 873.63 130.46 873.43 84 796.3 82.17 795.42 57.39 878.64 58.27 876.85 6.85 748.18 6.85"/>
        <path d="m1013.41,7.72l.74,47.17s-70.28-.16-68.07,56.19c2.37,60.33,77.38,46.2,77.38,46.2l4.13,43.88s-128.15,36.57-133.36-91.38c-4.82-118.23,119.19-102.06,119.19-102.06Z"/>
        <polygon points="1198.25 0 1029.81 2.1 1029.38 54.12 1086.22 53.37 1084.69 212.73 1140.46 212.97 1139.01 52.57 1198.64 52.07 1198.25 0"/>
        <path d="m608.01,108.49c-4.44-57.09-31.96-100.88-97.48-101.72-88.32-1.13-110.14,54.64-109.78,102.23.26,35.58,11.95,47.76,31.83,50.31,2.71.35,5.56.52,8.57.55,3.96.04,8.17-.18,12.61-.56-.62.79-3.97,4.92-8.81,8.21,14.32,25.41,41.46,42.6,71.98,37.97,28.24-4.27,48.76-25.96,57.81-51.81.17-.48.33-.96.49-1.45.16-.48.32-.97.47-1.46s.31-.97.45-1.46c.29-.98.57-1.96.82-2.95.1-.39.2-.77.29-1.16.09-.38.18-.76.27-1.14.11-.46.21-.92.31-1.38.03-.13.06-.26.08-.39.11-.49.21-.98.3-1.47.05-.26.11-.53.15-.8.06-.28.11-.56.15-.84.04-.23.08-.46.12-.7.01-.02.01-.05.01-.07.04-.21.08-.42.11-.62.09-.54.17-1.07.24-1.61.02-.1.04-.21.05-.31.06-.4.11-.82.16-1.22.05-.36.09-.72.13-1.09.01-.06.02-.13.02-.21.06-.58.12-1.16.18-1.74.02-.16.03-.33.05-.49.04-.43.07-.87.1-1.31.15-2.1.22-4.2.22-6.32,0-.46,0-.92-.01-1.39,0-.33,0-.65-.02-.98,0-.39-.02-.77-.04-1.16-.01-.36-.02-.72-.05-1.07-.01-.25-.02-.51-.04-.76-.02-.39-.05-.78-.08-1.17-.13-2.08-.35-4.17-.63-6.26-.05-.42-.11-.85-.18-1.27-.05-.36-.11-.72-.16-1.07-.1-.63-.2-1.25-.32-1.87-.31-1.76-.68-3.52-1.09-5.27-.07-.31-.15-.62-.22-.93-.22-.93-.47-1.86-.73-2.78-4.39-15.69-12.86-30.25-25.46-40.58-6.02-4.94-12.84-8.87-20.1-11.65-32.73-12.54-69.14,3.49-85.91,33.44-2.53,4.53-4.11,7.83-5.76,12.73,7.46.35,23.97.72,23.37,27.26-2.36-16.26-9.74-20.87-25.29-21.23-.88-.02-1.79-.03-2.73-.02-1.19,0-2.43.03-3.72.08,0,0-10.58-75.98,86.08-70.84,57.77,3.07,70.5,70.35,70.5,70.35,0,0-2.35-.09-5.62.05,2.3,8.54,3.48,17.48,3.48,26.4,0,2.22-.08,4.47-.23,6.67-.55,7.97-2.12,15.85-4.6,23.39,23.17-1.12,30.27-11.32,27.65-45.07Zm-134.98,8.56c.7-5.06,2.28-10.01,4.78-14.47,7.85-14.04,24.92-21.54,40.25-15.67,3.4,1.3,6.6,3.15,9.42,5.46,9.1,7.46,13.61,19.61,13.6,31.18,0,.99-.04,1.98-.11,2.96-1.16,16.51-12.24,32.85-29.41,35.45-17.45,2.64-32.54-9.93-37.23-26.15-.21-.7-.39-1.42-.56-2.13-1.26-5.44-1.51-11.12-.75-16.65Z"/>
      </g>
    </g>
  </g>
</svg>