<?xml version="1.0" encoding="UTF-8"?>
<svg id="Layer_2" data-name="Layer 2" xmlns="http://www.w3.org/2000/svg" viewBox="0 0 460.24 300.09">
  <g id="Layer_1-2" data-name="Layer 1">
    <g>
      <path d="m54.56,268.68c-2.11,0-4.25.02-6.35.07l-18.39.4V28.34h-10.61C8.6,28.34,0,36.94,0,47.55v233.33c0,10.61,8.6,19.21,19.21,19.21h172.92c-5.73-2.68-12.24-5.52-19.45-8.35-26.8-10.52-69.05-23.06-118.12-23.06Z"/>
      <path d="m54.56,0c84.93,0,150.76,34.73,169.82,45.96v250.67c-19.06-11.23-84.88-45.95-169.82-45.95-2.23,0-4.48.02-6.74.07V.08c2.26-.05,4.5-.08,6.74-.08Z"/>
      <path d="m412.18.08v250.67c-2.26-.05-4.51-.07-6.74-.07-84.6,0-150.23,34.45-169.59,45.82V45.83C255.21,34.45,320.85,0,405.44,0c2.24,0,4.48.03,6.74.08Z"/>
      <path d="m441.02,28.34h-10.6v240.81l-18.39-.4c-2.1-.05-4.24-.07-6.35-.07-49.07,0-91.32,12.54-118.12,23.06-7.21,2.83-13.72,5.67-19.45,8.35h172.92c10.61,0,19.21-8.6,19.21-19.21V47.56c0-10.61-8.6-19.22-19.22-19.22Z"/>
    </g>
  </g>
</svg>