<?xml version="1.0" encoding="UTF-8"?>
<svg id="Layer_2" data-name="Layer 2" xmlns="http://www.w3.org/2000/svg" viewBox="0 0 336.44 313.75">
  <g id="Layer_1-2" data-name="Layer 1">
    <path d="m336.44,139.25v73.13c0,31.2-25.3,56.5-56.5,56.5l3.84,44.87-47.67-44.87h-72.06c-18.16,0-34.31-8.56-44.65-21.87l7.41-6.98h78.82c47.09,0,85.4-38.31,85.4-85.4v-70.79c25.89,5.15,45.41,28,45.41,55.41Z"/>
    <path d="m205.63,0H67.4C30.17,0,0,30.18,0,67.4v87.23c0,37.22,30.17,67.4,67.4,67.4l-4.59,53.52,47.74-44.93,9.13-8.59h85.95c37.23,0,67.4-30.18,67.4-67.4v-87.23C273.03,30.18,242.86,0,205.63,0ZM72.85,132.83c-12.05,0-21.82-9.77-21.82-21.82s9.77-21.82,21.82-21.82,21.82,9.77,21.82,21.82-9.77,21.82-21.82,21.82Zm63.66,0c-12.05,0-21.82-9.77-21.82-21.82s9.77-21.82,21.82-21.82,21.82,9.77,21.82,21.82-9.77,21.82-21.82,21.82Zm63.66,0c-12.05,0-21.82-9.77-21.82-21.82s9.77-21.82,21.82-21.82,21.82,9.77,21.82,21.82-9.77,21.82-21.82,21.82Z"/>
  </g>
</svg>