<?xml version="1.0" encoding="UTF-8"?>
<svg id="Layer_2" data-name="Layer 2" xmlns="http://www.w3.org/2000/svg" viewBox="0 0 235.39 235.39">
  <defs>
    <style>
      .cls-1 {
        fill: #1a1a1a;
      }
    </style>
  </defs>
  <g id="Layer_1-2" data-name="Layer 1">
    <path class="cls-1" d="m117.7,0C52.69,0,0,52.7,0,117.7s52.69,117.69,117.7,117.69,117.69-52.69,117.69-117.69S182.7,0,117.7,0Zm52.17,90.94c.05,1.15.08,2.31.08,3.48,0,35.58-27.08,76.6-76.6,76.6-15.2,0-29.35-4.46-41.27-12.09,2.11.24,4.25.37,6.43.37,12.61,0,24.22-4.3,33.44-11.52-11.79-.22-21.73-8-25.15-18.7,1.64.32,3.33.48,5.06.48,2.46,0,4.84-.33,7.09-.94-12.31-2.48-21.59-13.35-21.59-26.4v-.34c3.63,2.02,7.78,3.23,12.2,3.37-7.23-4.83-11.98-13.07-11.98-22.41,0-4.93,1.33-9.56,3.64-13.53,13.28,16.28,33.12,27,55.5,28.13-.47-1.97-.7-4.03-.7-6.14,0-14.87,12.05-26.92,26.92-26.92,7.74,0,14.74,3.27,19.65,8.5,6.13-1.21,11.89-3.45,17.09-6.53-2.01,6.28-6.27,11.56-11.83,14.89,5.44-.65,10.62-2.1,15.45-4.23-3.62,5.4-8.17,10.13-13.43,13.93Z"/>
  </g>
</svg>