<?xml version="1.0" encoding="UTF-8"?><svg id="Layer_1" xmlns="http://www.w3.org/2000/svg" viewBox="0 0 475.37 475.37"><defs><style>.cls-1{fill:#fdf0e2;}</style></defs><g id="Layer_1-2"><path class="cls-1" d="m283.48,237.69c0,25.41-20.38,45.76-45.78,45.76s-45.76-20.36-45.76-45.76,20.36-45.76,45.76-45.76,45.78,20.36,45.78,45.76Z"/><path class="cls-1" d="m294,127.23h-112.63c-30.37,0-54.47,24.11-54.47,54.49v111.96c0,30.39,24.09,54.49,54.47,54.49h112.63c30.39,0,54.51-24.09,54.51-54.49v-111.96c0-30.37-24.11-54.49-54.51-54.49Zm-56.3,179.17c-37.8,0-68.7-30.9-68.7-68.7s30.9-68.7,68.7-68.7,68.7,30.9,68.7,68.7-30.9,68.7-68.7,68.7Zm71.77-124.16c-8.87,0-16.03-7.17-16.03-16.03s7.17-16.03,16.03-16.03,16.03,7.17,16.03,16.03-7.17,16.03-16.03,16.03Z"/><path class="cls-1" d="m237.69,0C106.43,0,0,106.43,0,237.69s106.43,237.67,237.69,237.67,237.67-106.41,237.67-237.67S368.96,0,237.69,0Zm133.73,293.68c0,42.71-34.72,77.43-77.43,77.43h-112.63c-42.69,0-77.41-34.72-77.41-77.43v-111.96c0-42.69,34.72-77.43,77.41-77.43h112.63c42.71,0,77.43,34.74,77.43,77.43v111.96Z"/></g></svg>